Coordinates
version=1
nRows=13
nColumns=22
inDegrees=yes

Units are S.I. units (second, meters, Newtons, ...)
If the header above contains a line with 'inDegrees', this indicates whether rotational values are in degrees (yes) or radians (no).

endheader
time	pelvis_tilt	pelvis_list	pelvis_rotation	pelvis_tx	pelvis_ty	pelvis_tz	hip_flexion_r	hip_adduction_r	hip_rotation_r	knee_angle_r	ankle_angle_r	subtalar_angle_r	hip_flexion_l	hip_adduction_l	hip_rotation_l	knee_angle_l	ankle_angle_l	subtalar_angle_l	lumbar_extension	lumbar_bending	lumbar_rotation
      3.35000000	     -0.90800156	      9.04992743	    -94.41448795	      0.31463825	      0.98249672	      1.22572050	     28.69540308	      1.14854991	     -3.54697776	    -37.39767278	     22.12409886	     -3.23884356	     25.15502477	      1.48507464	      0.14307422	    -25.88611699	     15.81768275	     -2.03354505	     -0.57812198	      1.57426190	      1.19183955
      3.36000000	     -0.95755092	      9.07797619	    -94.35216975	      0.31395092	      0.98250673	      1.22878601	     28.54535135	      1.37329808	     -3.20403988	    -36.58859126	     21.73653994	     -3.05568358	     25.03514655	      1.41823561	      0.16839190	    -25.98004660	     16.01691862	     -2.05232590	     -0.50275157	      1.56252512	      1.22197562
      3.37000000	     -0.97395380	      9.11095807	    -94.28937136	      0.31325684	      0.98246025	      1.23181329	     28.39990387	      1.56187490	     -2.83143617	    -35.91593585	     21.20357727	     -2.93695212	     24.92170611	      1.39356191	      0.23507835	    -26.06755241	     16.20660316	     -2.06601136	     -0.40325886	      1.51512379	      1.27898166
      3.38000000	     -1.01138084	      9.10512758	    -94.23341301	      0.31250564	      0.98243798	      1.23484722	     28.18278618	      1.77294940	     -2.44222923	    -35.32839254	     20.59523336	     -2.88836825	     24.78375101	      1.32944308	      0.22071001	    -26.19056296	     16.42861370	     -2.07984310	     -0.33696157	      1.49642827	      1.31866686
      3.39000000	     -1.01011548	      9.08518447	    -94.17855241	      0.31177164	      0.98241090	      1.23786328	     27.94556547	      1.93064245	     -2.06750127	    -34.85115703	     19.91033077	     -3.01245128	     24.61489528	      1.31783709	      0.25614123	    -26.27774331	     16.65054633	     -2.07378526	     -0.26923692	      1.43612831	      1.38659359
      3.40000000	     -0.97948581	      9.07347895	    -94.11890979	      0.31106039	      0.98233928	      1.24084935	     27.71189387	      2.04157856	     -1.72824433	    -34.47122372	     19.18871991	     -3.26403093	     24.45882815	      1.33643186	      0.27336785	    -26.36296556	     16.85799373	     -2.05767128	     -0.17718438	      1.35052905	      1.44560926
      3.41000000	     -0.91814249	      9.05596867	    -94.05267395	      0.31037657	      0.98225539	      1.24380567	     27.46261385	      2.10128890	     -1.43532906	    -34.16591563	     18.49970487	     -3.63932886	     24.29328608	      1.39044432	      0.28961886	    -26.43328241	     17.05201864	     -2.03004459	     -0.08050049	      1.23533271	      1.49635302
      3.42000000	     -0.83103747	      9.03792324	    -93.97997743	      0.30972842	      0.98216827	      1.24672827	     27.20223122	      2.11619901	     -1.19084231	    -33.91666824	     17.89410713	     -4.08190113	     24.11858451	      1.47549479	      0.30337007	    -26.47817141	     17.22931015	     -1.99710568	      0.02614688	      1.09898329	      1.54374504
      3.43000000	     -0.71891786	      9.02033727	    -93.90623150	      0.30909870	      0.98209450	      1.24962536	     26.92808472	      2.08819414	     -1.00210682	    -33.69923150	     17.39341679	     -4.54471987	     23.93301047	      1.58329547	      0.28851892	    -26.49353961	     17.36845122	     -1.96368245	      0.14423484	      0.94106326	      1.57857483
      3.44000000	     -0.58381489	      9.00422751	    -93.81920339	      0.30850251	      0.98203189	      1.25247284	     26.64484477	      2.01695497	     -0.87505718	    -33.50594526	     17.05104159	     -5.06392942	     23.73159334	      1.72573628	      0.30855768	    -26.46600746	     17.51310866	     -1.92711337	      0.26816618	      0.75882133	      1.61392667
      3.45000000	     -0.44001784	      8.99492993	    -93.74179270	      0.30789345	      0.98198874	      1.25528158	     26.35108278	      1.93084864	     -0.78823320	    -33.30695947	     16.85043154	     -5.56891553	     23.52344775	      1.87201742	      0.31616711	    -26.41013881	     17.64277134	     -1.89503289	      0.40736312	      0.57296624	      1.65175829
      3.46000000	     -0.29447400	      8.98715250	    -93.66598243	      0.30726393	      0.98198024	      1.25801644	     26.04561294	      1.83878388	     -0.73105985	    -33.09815264	     16.77906973	     -6.07620205	     23.30503661	      2.01638253	      0.32091131	    -26.32373793	     17.75358613	     -1.86510644	      0.54516122	      0.38504919	      1.69470310
      3.47000000	     -0.15510058	      8.98588210	    -93.60476157	      0.30659841	      0.98201206	      1.26068804	     25.73233464	      1.75433129	     -0.69639221	    -32.86556521	     16.80413358	     -6.55730854	     23.07888615	      2.14634803	      0.31390529	    -26.20650122	     17.84691349	     -1.83860255	      0.69057583	      0.20804436	      1.74669591
